<?xml version="1.0" encoding="UTF-8"?>
<svg version="1.1" xmlns="http://www.w3.org/2000/svg" width="640" height="640">
<path d="M0,0 L37,0 L61,3 L84,8 L104,14 L124,22 L143,31 L163,43 L182,57 L195,68 L216,89 L227,103 L237,117 L247,134 L259,159 L266,179 L272,201 L276,223 L277,233 L277,273 L274,297 L269,320 L259,350 L251,368 L241,386 L228,405 L215,421 L201,436 L189,447 L172,460 L157,470 L135,482 L112,492 L88,500 L66,505 L45,508 L31,509 L6,509 L-17,507 L-46,501 L-66,495 L-88,486 L-104,478 L-122,468 L-139,456 L-149,448 L-163,436 L-176,423 L-185,412 L-197,396 L-208,378 L-217,361 L-226,338 L-233,314 L-238,288 L-240,268 L-240,240 L-237,214 L-232,191 L-225,168 L-216,146 L-206,127 L-196,112 L-184,96 L-172,82 L-160,70 L-152,63 L-138,52 L-117,38 L-97,27 L-74,17 L-50,9 L-23,3 Z M42,37 L41,42 L44,43 L59,43 L61,42 L60,37 Z M7,41 L6,46 L7,47 L12,47 L13,43 L11,41 Z M-35,45 L-37,47 L-36,53 L-33,54 L-29,52 L-29,47 L-31,45 Z M87,50 L84,53 L85,57 L86,58 L91,58 L92,57 L92,52 Z M-109,65 L-110,70 L-105,71 L-103,67 L-105,65 Z M-10,66 L-12,68 L-11,72 L-6,73 L-4,69 L-6,66 Z M26,67 L24,71 L24,77 L13,78 L12,82 L16,84 L23,85 L25,93 L29,93 L30,92 L31,85 L36,84 L41,83 L42,79 L41,78 L32,77 L31,76 L30,69 Z M61,67 L60,72 L64,74 L67,73 L68,69 L66,67 Z M-76,68 L-78,70 L-79,77 L-88,78 L-90,82 L-89,84 L-79,85 L-77,93 L-73,94 L-71,85 L-62,84 L-61,79 L-62,78 L-71,77 L-74,68 Z M129,77 L112,81 L102,86 L102,88 L118,90 L130,95 L140,102 L145,106 L153,117 L159,130 L161,139 L161,157 L158,169 L151,183 L142,193 L135,199 L121,206 L110,209 L94,210 L99,216 L113,224 L126,228 L132,229 L149,229 L163,226 L175,221 L185,215 L195,206 L203,197 L210,185 L214,174 L216,164 L216,144 L212,128 L207,116 L198,103 L190,95 L177,86 L164,80 L152,77 Z M-126,84 L-128,88 L-126,91 L-121,90 L-120,86 L-122,84 Z M59,98 L57,99 L57,104 L58,105 L63,105 L64,100 L62,98 Z M-43,100 L-53,104 L-61,110 L-69,121 L-73,131 L-74,135 L-74,146 L-72,152 L-64,151 L-54,149 L-30,149 L-12,153 L-2,157 L1,159 L4,159 L5,156 L5,139 L1,125 L-6,114 L-13,107 L-25,101 L-28,100 Z M-142,108 L-154,111 L-166,117 L-177,127 L-184,138 L-189,150 L-191,160 L-191,177 L-187,193 L-179,208 L-171,217 L-159,226 L-150,230 L-134,233 L-122,232 L-110,228 L-99,221 L-91,212 L-86,212 L-87,219 L-91,225 L-101,233 L-108,237 L-116,248 L-125,260 L-132,270 L-140,286 L-146,304 L-148,316 L-149,335 L-147,351 L-142,366 L-133,382 L-122,394 L-115,400 L-101,408 L-88,411 L-62,414 L-47,415 L-36,415 L-35,412 L-35,406 L-39,404 L-58,402 L-68,402 L-78,406 L-83,405 L-82,400 L-66,392 L-58,384 L-53,374 L-52,369 L-52,355 L-55,344 L-59,336 L-68,326 L-76,320 L-84,316 L-92,314 L-105,314 L-111,315 L-113,314 L-113,309 L-103,306 L-93,306 L-81,309 L-69,315 L-59,323 L-51,334 L-46,346 L-44,356 L-44,369 L-47,380 L-52,390 L-55,394 L-44,395 L-35,395 L-35,325 L-36,313 L-56,313 L-65,310 L-77,303 L-84,295 L-87,289 L-87,282 L-82,283 L-76,292 L-67,300 L-58,304 L-54,305 L-40,305 L-21,300 L-12,296 L-7,292 L-5,288 L-5,281 L-9,276 L-11,275 L-18,275 L-31,279 L-45,279 L-54,275 L-59,270 L-61,267 L-61,264 L-55,265 L-50,269 L-42,272 L-36,272 L-35,271 L-34,256 L-30,251 L6,240 L19,233 L24,233 L23,238 L14,244 L12,245 L12,247 L18,248 L31,248 L41,244 L49,238 L52,235 L51,232 L46,227 L45,225 L45,217 L48,212 L51,208 L44,200 L34,190 L20,179 L2,168 L-12,162 L-26,158 L-32,157 L-54,157 L-70,161 L-71,181 L-73,186 L-76,187 L-78,186 L-78,164 L-82,148 L-90,132 L-99,122 L-113,113 L-124,109 L-130,108 Z M23,116 L22,121 L24,122 L32,122 L33,117 L32,116 Z M94,122 L92,127 L95,130 L99,129 L100,128 L100,123 L99,122 Z M38,144 L37,149 L42,150 L43,145 Z M123,145 L122,146 L121,153 L120,154 L110,156 L111,161 L120,162 L121,163 L122,170 L125,171 L127,170 L128,161 L137,161 L139,157 L137,155 L129,154 L126,145 Z M60,161 L57,163 L58,168 L63,168 L64,164 L61,161 Z M86,175 L84,177 L85,182 L90,183 L92,181 L92,176 L91,175 Z M236,201 L234,202 L233,206 L235,209 L240,209 L242,207 L241,202 Z M57,211 L54,216 L57,220 L62,220 L64,218 L64,213 L61,211 Z M-208,214 L-210,219 L-207,222 L-202,220 L-203,215 Z M68,225 L64,230 L61,233 L57,240 L57,248 L64,242 L68,237 L70,232 L69,225 Z M225,236 L224,241 L226,243 L231,242 L232,238 L230,236 Z M71,241 L65,251 L59,255 L53,256 L51,254 L50,248 L38,254 L31,256 L16,256 L0,251 L-8,252 L-26,257 L-27,258 L-27,270 L-16,267 L-6,269 L-1,272 L168,271 L165,269 L114,253 L73,241 Z M195,241 L194,242 L193,249 L183,251 L182,255 L183,256 L194,257 L194,263 L196,266 L199,265 L201,257 L210,256 L211,252 L209,250 L201,249 L199,242 Z M-191,247 L-193,256 L-202,257 L-204,261 L-202,263 L-193,264 L-190,273 L-186,271 L-185,264 L-175,262 L-176,257 L-185,256 L-187,247 Z M-161,247 L-163,250 L-162,252 L-158,251 L-159,247 Z M4,279 L3,281 L3,288 L-1,297 L-8,303 L-24,309 L-27,310 L-27,417 L-4,419 L6,422 L12,425 L170,425 L171,421 L170,399 L159,399 L150,395 L144,388 L141,378 L142,368 L146,360 L153,354 L160,352 L171,352 L170,337 L161,332 L156,326 L154,321 L154,309 L159,299 L165,295 L170,293 L170,279 Z M203,290 L200,291 L201,296 L218,296 L220,292 L218,290 Z M-179,294 L-180,298 L-179,299 L-166,299 L-165,296 L-166,294 Z M-193,314 L-195,316 L-194,321 L-189,322 L-187,320 L-187,315 L-188,314 Z M224,316 L222,321 L224,323 L229,323 L230,322 L230,317 L229,316 Z M-170,334 L-170,338 L-166,337 L-167,334 Z M206,342 L203,345 L204,349 L209,350 L211,349 L211,344 Z M-188,352 L-190,354 L-189,359 L-188,360 L-183,360 L-182,359 L-182,354 L-184,352 Z M155,363 L150,369 L149,372 L149,379 L153,387 L156,388 L154,381 L154,370 L157,363 Z M-151,371 L-160,377 L-166,386 L-168,392 L-167,401 L-162,409 L-155,416 L-138,424 L-121,429 L-98,433 L-60,437 L-21,440 L-4,443 L7,447 L13,451 L18,457 L17,462 L12,467 L3,473 L-14,477 L-32,479 L-35,482 L-33,486 L-25,487 L-4,485 L11,481 L21,475 L28,466 L29,463 L29,451 L24,441 L17,435 L7,430 L-9,426 L-78,420 L-104,416 L-123,412 L-138,406 L-143,404 L-148,399 L-149,394 L-144,389 L-140,387 L-142,382 L-148,371 Z M207,373 L205,377 L208,379 L217,379 L220,377 L218,373 Z M156,388 Z M190,393 L188,395 L189,399 L194,400 L196,399 L195,394 Z M93,447 L89,450 L88,458 L93,463 L98,464 L103,461 L105,459 L105,451 L101,447 Z M63,448 L61,450 L62,454 L66,455 L68,453 L67,448 Z M-96,456 L-97,459 L-95,461 L-25,461 L-24,457 L-25,456 Z M128,456 L127,459 L129,461 L151,461 L152,458 L151,456 Z M50,469 L48,470 L49,475 L69,475 L70,470 L68,469 Z " fill="#000000" transform="translate(302,70)"/>
<path d="M0,0 L16,0 L26,4 L35,10 L44,20 L49,31 L51,42 L50,54 L46,65 L39,74 L30,81 L23,84 L10,85 L6,83 L7,78 L8,77 L20,75 L30,70 L37,62 L41,51 L41,39 L37,27 L30,18 L21,12 L16,10 L3,9 L-5,11 L-10,13 L-15,12 L-14,6 L-4,1 Z " fill="#000000" transform="translate(152,205)"/>
<path d="M0,0 L10,0 L19,6 L23,15 L22,25 L18,31 L13,35 L8,37 L1,37 L-7,33 L-12,27 L-14,21 L-13,12 L-9,6 L-5,2 Z M5,3 L1,6 L2,12 L9,13 L11,11 L11,6 L7,3 Z " fill="#000000" transform="translate(269,261)"/>
<path d="M0,0 L13,1 L18,3 L19,7 L18,8 L-2,8 L-13,10 L-16,8 L-15,4 L-12,2 Z " fill="#000000" transform="translate(315,288)"/>
<path d="M0,0 L7,1 L9,3 L9,9 L4,13 L-1,12 L-4,7 L-2,2 Z " fill="#000000" transform="translate(417,361)"/>
<path d="M0,0 L5,0 L6,3 L4,6 L0,5 L-1,2 Z " fill="#000000" transform="translate(335,370)"/>
<path d="M0,0 L8,1 L15,7 L17,11 L17,22 L13,29 L5,33 L-3,33 L-11,28 L-14,23 L-14,11 L-10,5 L-4,1 Z M-2,8 L-7,13 L-7,20 L-3,25 L3,26 L8,23 L11,18 L9,11 L6,8 Z " fill="#000000" transform="translate(377,371)"/>
<path d="M0,0 L7,1 L10,5 L9,12 L5,15 L-1,15 L-5,10 L-4,3 Z " fill="#000000" transform="translate(427,385)"/>
<path d="M0,0 L8,0 L16,4 L22,11 L24,19 L23,27 L19,34 L13,39 L3,41 L-5,39 L-13,32 L-16,26 L-16,15 L-12,7 L-4,1 Z M0,8 L-6,12 L-8,16 L-8,25 L-3,31 L1,33 L7,33 L13,29 L16,24 L16,17 L12,11 L7,8 Z " fill="#000000" transform="translate(319,399)"/>
<path d="M0,0 L5,1 L9,5 L9,11 L5,15 L1,16 L-4,14 L-6,12 L-6,4 L-3,1 Z " fill="#000000" transform="translate(408,418)"/>
<path d="M0,0 L8,0 L15,4 L19,11 L19,20 L15,27 L9,31 L-2,31 L-8,27 L-12,20 L-12,12 L-9,6 L-3,1 Z M3,7 L-3,10 L-5,14 L-4,20 L1,24 L8,23 L12,18 L11,11 L8,8 Z " fill="#000000" transform="translate(371,445)"/>
<path d="M0,0 L7,0 L11,5 L10,11 L7,14 L0,14 L-3,11 L-3,3 Z " fill="#000000" transform="translate(415,464)"/>
<path d="M0,0 L6,1 L10,5 L10,13 L6,17 L-2,17 L-6,13 L-7,8 L-4,3 Z " fill="#000000" transform="translate(327,465)"/>
</svg>
